<?xml version="1.0" encoding="utf-8"?>
<!-- Generator: Adobe Illustrator 18.1.1, SVG Export Plug-In . SVG Version: 6.00 Build 0)  -->
<svg version="1.1" id="Layer_1" xmlns="http://www.w3.org/2000/svg" xmlns:xlink="http://www.w3.org/1999/xlink" x="0px" y="0px"
	 viewBox="0 0 300 40" enable-background="new 0 0 300 40" xml:space="preserve">
<g>
	<path fill="#FFFFFF" d="M64.8,13.9v10.6l-2.1,1.8l-7.7-8.1v7.2h-2.8V13.9h2.9l6.9,7.4v-7.4H64.8z"/>
	<path fill="#FFFFFF" d="M83.9,22.4l-3,3h-7.5l-3-3v-5.6l3-3h7.5l3,3V22.4z M79.6,16.5h-4.8l-1.3,1.3v3.6l1.3,1.3h4.9l1.3-1.3v-3.6
		L79.6,16.5z"/>
	<path fill="#FFFFFF" d="M99.9,16.5h-6.1l-1.3,1.3v3.5l1.3,1.3h6.1v2.7h-7.5l-3-3v-5.4l3-3h7.5V16.5z"/>
	<path fill="#FFFFFF" d="M109.1,25.3v-8.7H105v-2.7h11.2v2.7H112v8.7H109.1z"/>
	<path fill="#FFFFFF" d="M132.9,13.9v11.5h-1.5l-1.2-1.4l-1.6,1.5h-4.3l-2.8-2.8v-8.7h2.9v7.6l1.2,1.3h3l1.5-1.4v-7.5H132.9z"/>
	<path fill="#FFFFFF" d="M138.8,25.3V13.9h9.6l2.4,2.4v3l-1.6,1.6l1.6,1.5v3h-2.9v-1.9l-1.1-1.1h-5v3.1H138.8z M141.7,19.6h4.9
		l1.1-1.1v-1.3l-0.7-0.7h-5.3V19.6z"/>
	<path fill="#FFFFFF" d="M169.1,13.9v10.6l-2.1,1.8l-7.7-8.1v7.2h-2.8V13.9h2.9l6.9,7.4v-7.4H169.1z"/>
	<path fill="#FFFFFF" d="M183.7,25.3v-2.7h-6.1v2.7h-2.9v-8l3.4-3.5h5l3.4,3.5v8.1H183.7z M181.9,16.5h-2.4l-1.8,1.8v1.9h6.1v-1.8
		L181.9,16.5z"/>
	<path fill="#FFFFFF" d="M202.9,23.3l-2,2h-8.5V13.9h2.9v8.7h4.3l1.3-1.3L202.9,23.3z"/>
	<path fill="#FFFFFF" d="M226.7,17.9l-1.4-1.4h-4.7l-1.3,1.3v3.5l1.3,1.3h4.8l1.4-1.4l2.1,2.1l-2,2h-7.6l-3-3v-5.6l3-3h7.6l2,2
		L226.7,17.9z"/>
	<path fill="#FFFFFF" d="M247.1,22.4l-3,3h-7.5l-3-3v-5.6l3-3h7.5l3,3V22.4z M242.8,16.5h-4.8l-1.3,1.3v3.6l1.3,1.3h4.9l1.3-1.3
		v-3.6L242.8,16.5z"/>
	<path fill="#FFFFFF" d="M252.7,13.9h9.9l2.9,2.9v5.6l-2.9,2.9h-9.9V13.9z M255.6,22.6h5.6l1.2-1.2v-3.6l-1.2-1.3h-5.6V22.6z"/>
	<path fill="#FFFFFF" d="M280.7,13.9l1.6,1.6l-1.9,1.9l-1.1-1.1H274v1.9h5.7v2.6H274v1.9h5.4l1.1-1l1.9,1.9l-1.6,1.6h-9.5V13.9
		H280.7z"/>
</g>
<g>
	<g>
		<polygon fill="#FFFFFF" points="32.9,13.5 29.8,15.5 26.6,13.5 26.6,14.3 27,14.6 26.6,15.4 27.4,15.9 27.4,16.7 28.3,16.7 
			28.3,16.4 29.3,16.9 29.3,17.4 29.8,18.8 30.2,17.4 30.2,16.9 31.2,16.4 31.2,16.7 32.1,16.7 32.1,15.9 32.9,15.4 32.5,14.6 
			32.9,14.3 		"/>
		<polygon fill="#FFFFFF" points="31.2,25.8 31.2,24.1 33.3,24.1 32,22 32.8,19.8 34.1,19.8 34.1,18.5 35.3,18.5 35.3,17.3 
			36.6,17.3 35.6,15.1 38.1,15.1 37,14 38.1,12.8 34.3,12.8 33.3,13.8 33.3,16.6 32.4,17.4 30.8,17.4 29.8,20.4 28.7,17.4 
			27.1,17.4 26.2,16.6 26.2,13.8 25.3,12.8 21.4,12.8 22.5,14 21.4,15.1 23.9,15.1 22.9,17.3 24.2,17.3 24.2,18.5 25.4,18.5 
			25.4,19.8 26.7,19.8 27.5,22 26.2,24.1 28.3,24.1 28.3,25.8 29.8,24.3 		"/>
	</g>
	<path fill="#FFFFFF" d="M29.8,4.6L17.6,7.6v19.7l12.1,7.4l12.1-7.4V7.6L29.8,4.6z M39.1,25.5l-9.4,1.9v4l-9.4-5.9V9.8l9.4,1.8v-4
		l9.4,2.2V25.5z"/>
</g>
</svg>
